<svg height="138" viewBox="0 0 141 138" width="141" xmlns="http://www.w3.org/2000/svg"><g fill="none"><path d="m67.2 80.2c-16.2-11.8-28.4-32.3-18.6-48.5 4.4-5.4 10-9.8 16.2-13.5.7-.3 1.4-.6 2.1-1-.1 0-.2 0-.4 0 30.4-16.8 74.6-16.3 74.6-16.3s-77.8-9-119.4 30.7c-8.2 6.9-14.4 16-18.1 26.1v.1c-3 8.3-4.2 17.3-3.3 26.6 2 20.9 14.3 38.3 31.4 47.8 5.7 3.7 12.7 5.5 20 4.8 17.3-1.7 30-17.1 28.3-34.4-.9-9.3-5.8-17.3-12.8-22.4z" fill="#003766"/><path d="m95.5 27.3c-.3.1-31.7 13-12.2 34.3 16.4 17.7 24.7 25.1 19.7 48.5-1.9 9.6-7.9 18.1-17.5 25.1 24.1-10.2 39.9-35.2 37.2-62.6-1.9-19.2-12.3-35.5-27.2-45.3z" fill="#fff"/></g></svg>