<svg width="156" height="160" viewBox="0 0 156 160" fill="none" xmlns="http://www.w3.org/2000/svg">
<path d="M76.2137 89.5788L76.2381 89.5261C58.8171 76.8059 45.6352 54.6491 56.2296 37.1351C60.9646 31.3053 66.9776 26.4975 73.689 22.5255C74.4154 22.1743 75.1521 21.8231 75.9169 21.4719C75.7912 21.4719 75.662 21.4719 75.5363 21.4473C108.175 3.20636 155.64 3.73315 155.64 3.73315C155.64 3.73315 71.985 -5.90007 27.3028 37.0368C18.4733 44.5846 11.7618 54.3251 7.83554 65.2902C7.83554 65.3183 7.8111 65.3464 7.79713 65.378C2.52805 80.2292 2.67881 96.4803 8.2225 111.23C13.7662 125.98 24.3419 138.267 38.0613 145.9C45.4906 150.706 54.4923 152.406 63.149 150.636C71.8057 148.866 79.4333 143.767 84.4071 136.425C89.3809 129.082 91.3078 120.077 89.7774 111.327C88.247 102.577 83.3802 94.7733 76.2137 89.5788V89.5788Z" fill="#2E94CF"/>
<path d="M106.624 32.3098C106.324 32.3905 72.4947 46.3961 93.5438 69.3676C111.192 88.6271 120.121 96.6026 114.747 121.864C112.707 132.245 106.272 141.418 95.9113 148.966C106.907 144.27 116.433 136.667 123.478 126.964C130.523 117.261 134.823 105.82 135.921 93.8567C137.02 81.8931 134.876 69.8536 129.718 59.017C124.56 48.1803 116.579 38.9512 106.624 32.3098Z" fill="#2E94CF"/>
</svg>
