<svg width="648" height="160" viewBox="0 0 648 160" fill="none" xmlns="http://www.w3.org/2000/svg">
<path d="M212.261 64.0787C210.615 62.0444 208.424 60.5261 205.948 59.7028C203.532 58.8084 200.983 58.3334 198.409 58.298C196.966 58.3047 195.528 58.4696 194.121 58.7897C192.671 59.1088 191.271 59.6239 189.959 60.3209C188.695 60.9809 187.604 61.9315 186.774 63.0953C185.931 64.3246 185.502 65.7927 185.548 67.2851C185.548 69.9167 186.528 71.9302 188.489 73.3256C190.767 74.8828 193.263 76.0912 195.895 76.9113C198.877 77.8993 202.084 78.8861 205.515 79.8718C208.893 80.8342 212.129 82.2431 215.139 84.0616C218.131 85.8751 220.669 88.355 222.559 91.3102C224.519 94.3538 225.499 98.4218 225.499 103.514C225.499 108.363 224.601 112.596 222.803 116.213C221.085 119.732 218.59 122.81 215.509 125.211C212.328 127.654 208.706 129.455 204.845 130.514C195.47 133.084 185.547 132.788 176.34 129.664C171.517 127.941 167.023 125.146 162.858 121.281L176.477 106.243C178.416 108.856 180.962 110.95 183.893 112.343C188.225 114.485 193.16 115.053 197.861 113.948C199.366 113.611 200.812 113.05 202.152 112.283C203.375 111.584 204.422 110.614 205.215 109.446C206.006 108.242 206.41 106.822 206.371 105.379C206.371 102.747 205.37 100.672 203.368 99.1523C201.067 97.4776 198.524 96.1676 195.829 95.2681C192.802 94.2052 189.534 93.1375 186.023 92.0652C182.592 91.0345 179.299 89.585 176.218 87.7491C173.209 85.9578 170.633 83.5153 168.679 80.5988C166.675 77.6417 165.674 73.7377 165.676 68.8865C165.676 64.2039 166.596 60.095 168.435 56.5596C170.213 53.0975 172.723 50.0684 175.789 47.685C178.958 45.2461 182.554 43.427 186.39 42.3223C190.41 41.129 194.581 40.5269 198.772 40.5347C203.588 40.5253 208.379 41.2354 212.988 42.6419C217.576 44.0453 221.802 46.4428 225.37 49.6657L212.261 64.0787Z" fill="white"/>
<path d="M271.707 122.514H271.463C269.537 125.621 266.684 128.037 263.313 129.418C259.909 130.82 256.264 131.536 252.586 131.525C249.866 131.533 247.16 131.138 244.554 130.352C242.085 129.628 239.776 128.436 237.752 126.84C235.791 125.28 234.2 123.301 233.094 121.046C231.949 118.744 231.377 116.073 231.379 113.032C231.379 109.58 232.013 106.663 233.279 104.28C234.514 101.931 236.276 99.9052 238.426 98.3622C240.687 96.7545 243.191 95.5258 245.843 94.7238C248.666 93.8536 251.556 93.2146 254.482 92.8133C257.45 92.4053 260.437 92.1591 263.431 92.0758C266.414 91.9962 269.171 91.9552 271.704 91.9529C271.704 88.6751 270.54 86.0657 268.212 84.1248C265.887 82.1945 262.95 81.1665 259.936 81.2275C257.067 81.1912 254.23 81.8463 251.664 83.138C249.129 84.4457 246.862 86.2235 244.984 88.3778L235.179 78.2669C238.638 75.046 242.73 72.5899 247.191 71.0569C251.761 69.4534 256.569 68.64 261.41 68.6512C266.801 68.6512 271.234 69.329 274.707 70.6846C278.18 72.0403 280.958 74.0303 283.042 76.6549C285.137 79.2842 286.587 82.5093 287.393 86.3303C288.261 90.693 288.672 95.1354 288.618 99.5843V130.033H271.707V122.514ZM267.168 103.778C265.771 103.778 264.036 103.838 261.961 103.96C259.926 104.076 257.91 104.43 255.955 105.014C254.165 105.525 252.5 106.407 251.067 107.602C249.719 108.754 249.045 110.357 249.045 112.41C249.045 114.625 249.985 116.264 251.866 117.327C253.654 118.37 255.683 118.922 257.75 118.928C259.506 118.935 261.253 118.689 262.939 118.198C264.533 117.74 266.043 117.029 267.412 116.09C268.706 115.199 269.776 114.017 270.537 112.638C271.339 111.127 271.739 109.434 271.7 107.721V103.778H267.168Z" fill="white"/>
<path d="M297.324 36.8366H315.712V130.033H297.324V36.8366Z" fill="white"/>
<path d="M382.267 119.679C379.315 123.468 375.486 126.473 371.114 128.431C366.734 130.461 361.969 131.513 357.147 131.515C352.744 131.542 348.371 130.791 344.227 129.295C340.328 127.904 336.744 125.746 333.685 122.946C330.68 120.162 328.281 116.783 326.638 113.021C324.911 109.16 324.047 104.85 324.047 100.09C324.047 95.3301 324.905 91.0163 326.621 87.1485C328.264 83.3868 330.663 80.0077 333.667 77.2238C336.727 74.4237 340.311 72.2651 344.209 70.8742C348.353 69.3785 352.727 68.6273 357.129 68.6547C361.099 68.6008 365.039 69.3558 368.712 70.8742C372.096 72.2889 375.115 74.4604 377.539 77.2238C380.037 80.1269 381.936 83.5006 383.126 87.1485C384.482 91.3248 385.145 95.697 385.089 100.09V105.885H342.432C343.17 109.42 344.763 112.235 347.212 114.331C349.661 116.426 352.688 117.474 356.291 117.474C359.318 117.474 361.878 116.796 363.973 115.441C366.096 114.046 367.945 112.27 369.428 110.201L382.267 119.679ZM366.701 93.2979C366.767 91.8219 366.529 90.348 366.002 88.9689C365.475 87.5897 364.67 86.3351 363.638 85.2836C361.51 83.0641 358.773 81.9543 355.425 81.9543C353.579 81.918 351.745 82.2535 350.03 82.9412C348.566 83.5449 347.218 84.4005 346.046 85.4698C344.96 86.4776 344.085 87.693 343.472 89.0449C342.862 90.3842 342.506 91.8268 342.425 93.2979H366.701Z" fill="white"/>
<path d="M426.883 87.7491C424.187 84.3823 420.633 82.6977 416.219 82.6954C414.64 82.7009 413.085 83.0811 411.679 83.8052C410.209 84.5427 409.476 85.821 409.476 87.6262C409.476 89.1047 410.23 90.1969 411.742 90.8922C413.596 91.7032 415.526 92.3232 417.504 92.743L424.98 94.4674C427.597 95.0701 430.114 96.0458 432.456 97.3647C434.772 98.6684 436.746 100.506 438.218 102.727C439.729 104.989 440.485 108.009 440.487 111.788C440.487 115.651 439.649 118.837 437.973 121.344C436.32 123.83 434.118 125.898 431.538 127.385C428.8 128.95 425.815 130.034 422.714 130.588C419.522 131.198 416.28 131.509 413.031 131.515C408.761 131.5 404.512 130.899 400.404 129.727C396.306 128.625 392.58 126.431 389.618 123.378L400.771 110.924C402.322 112.921 404.262 114.579 406.473 115.795C408.73 116.946 411.235 117.517 413.764 117.46C415.723 117.487 417.672 117.174 419.526 116.536C421.244 115.918 422.099 114.78 422.099 113.144C422.099 111.585 421.344 110.414 419.833 109.632C417.999 108.741 416.065 108.078 414.071 107.658L406.595 105.934C403.995 105.338 401.482 104.405 399.119 103.159C396.79 101.929 394.808 100.127 393.357 97.9196C391.847 95.6603 391.09 92.64 391.088 88.8588C391.088 85.3258 391.804 82.2822 393.235 79.7278C394.619 77.2308 396.545 75.0806 398.871 73.438C401.307 71.7461 404.028 70.5144 406.903 69.8031C409.905 69.0247 412.993 68.6306 416.093 68.6301C420.117 68.6447 424.119 69.2263 427.983 70.358C431.872 71.4377 435.391 73.5696 438.158 76.5214L426.883 87.7491Z" fill="white"/>
<path d="M451.152 42.7543H461.449V120.417H501.163V130.033H451.152V42.7543Z" fill="white"/>
<path d="M504.351 101.186C504.291 96.9591 505.081 92.7638 506.673 88.8518C508.144 85.2731 510.311 82.0256 513.046 79.2994C515.819 76.5819 519.117 74.4651 522.736 73.0798C530.643 70.1205 539.345 70.1205 547.252 73.0798C550.87 74.467 554.165 76.5863 556.935 79.3064C559.67 82.0326 561.837 85.2801 563.308 88.8589C566.413 96.7813 566.413 105.594 563.308 113.516C561.837 117.095 559.67 120.342 556.935 123.069C554.165 125.789 550.87 127.908 547.252 129.295C539.345 132.254 530.643 132.254 522.736 129.295C519.119 127.907 515.823 125.788 513.053 123.069C510.318 120.342 508.151 117.095 506.68 113.516C505.086 109.606 504.293 105.412 504.351 101.186V101.186ZM514.648 101.186C514.617 104.062 515.089 106.921 516.045 109.632C516.935 112.148 518.33 114.454 520.144 116.405C521.957 118.355 524.151 119.91 526.587 120.972C531.967 123.191 538 123.191 543.38 120.972C545.816 119.91 548.01 118.355 549.823 116.405C551.637 114.454 553.032 112.148 553.922 109.632C555.803 104.161 555.803 98.2137 553.922 92.743C553.032 90.2265 551.636 87.9209 549.823 85.9695C548.009 84.0181 545.816 82.4626 543.38 81.3995C537.999 79.1846 531.968 79.1846 526.587 81.3995C524.151 82.4626 521.958 84.0181 520.144 85.9695C518.331 87.9209 516.935 90.2265 516.045 92.743C515.09 95.4528 514.617 98.3108 514.648 101.186V101.186Z" fill="white"/>
<path d="M582.307 80.4758H569.806V72.3457H582.307V59.3973C582.277 56.1444 582.606 52.8982 583.288 49.7184C583.863 46.9789 585.012 44.394 586.658 42.1361C588.305 39.9585 590.478 38.2406 592.971 37.1457C595.586 35.9563 598.813 35.3604 602.654 35.3581C603.969 35.3607 605.281 35.4782 606.576 35.7093C607.772 35.8904 608.931 36.2652 610.008 36.8191L608.66 45.4479C606.582 44.6652 604.385 44.2482 602.165 44.2152C599.714 44.2152 597.794 44.6471 596.404 45.5111C595.021 46.3541 593.925 47.5996 593.261 49.0827C592.517 50.8199 592.101 52.6814 592.036 54.5719C591.914 56.7071 591.853 59.0074 591.85 61.4728V72.3457H605.818V80.4829H591.85V130.033H582.307V80.4758Z" fill="white"/>
<path d="M644.33 80.4759H627.415V109.323C627.415 111.215 627.456 112.961 627.537 114.563C627.58 116.011 627.913 117.436 628.515 118.752C629.077 119.934 629.973 120.921 631.092 121.59C632.233 122.292 633.862 122.644 635.981 122.644C637.424 122.639 638.862 122.474 640.269 122.152C641.714 121.833 643.114 121.337 644.438 120.673L644.787 129.425C643.046 130.194 641.212 130.733 639.333 131.027C637.45 131.345 635.544 131.51 633.634 131.522C630.201 131.522 627.463 131.069 625.421 130.163C623.504 129.363 621.848 128.04 620.641 126.342C619.426 124.512 618.65 122.424 618.375 120.241C617.987 117.567 617.801 114.867 617.82 112.164V80.4759H605.319V72.3458H617.82V55.9451H627.384V72.3458H644.299L644.33 80.4759Z" fill="white"/>
<path d="M76.2137 89.5788L76.2381 89.5261C58.8171 76.8059 45.6352 54.6491 56.2296 37.1351C60.9646 31.3053 66.9776 26.4975 73.689 22.5255C74.4154 22.1743 75.1521 21.8231 75.9169 21.4719C75.7912 21.4719 75.662 21.4719 75.5363 21.4474C108.175 3.20639 155.64 3.73318 155.64 3.73318C155.64 3.73318 71.985 -5.90004 27.3028 37.0368C18.4733 44.5846 11.7618 54.3252 7.83554 65.2903C7.83554 65.3184 7.8111 65.3465 7.79713 65.3781C2.52805 80.2292 2.67881 96.4804 8.2225 111.23C13.7662 125.98 24.3419 138.268 38.0613 145.9C45.4906 150.706 54.4923 152.406 63.149 150.636C71.8057 148.866 79.4333 143.767 84.4071 136.425C89.3809 129.082 91.3078 120.077 89.7774 111.327C88.247 102.577 83.3802 94.7733 76.2137 89.5788V89.5788Z" fill="white"/>
<path d="M106.624 32.3098C106.324 32.3905 72.4947 46.3961 93.5438 69.3676C111.192 88.6271 120.121 96.6026 114.747 121.864C112.707 132.245 106.272 141.418 95.9113 148.966C106.907 144.27 116.433 136.667 123.478 126.964C130.523 117.261 134.823 105.82 135.921 93.8567C137.02 81.8931 134.876 69.8536 129.718 59.017C124.56 48.1803 116.579 38.9512 106.624 32.3098Z" fill="white"/>
</svg>
