<svg
height="256"
viewBox="0 0 216 256"
width="216"
xmlns="http://www.w3.org/2000/svg"
>
<g fill="none" fill-rule="evenodd">
    <path d="m-20 0h256v256h-256z" />
    <g fill-rule="nonzero">
    <g fill="#fff" transform="translate(75.171806)">
        <path
        d="m73.2189568 210.884996h67.6092372v15.214204h-67.6092372z"
        transform="matrix(-1 0 0 1 214.04715 0)"
        />
        <path d="m25.0474361 0h13.0993058v41.8389651h-13.0993058z" />
        <path d="m25.0474361 202.009695h13.0993058v53.249618h-13.0993058z" />
        <path d="m11.9486062 41.8389651h40.1429815v79.8743789h-40.1429815z" />
        <path d="m.11703965 121.713249h65.49643345v75.225552h-65.49643345z" />
    </g>
    <path
        d="m87.1204123 154.677294 13.9447507.422542v-13.945814h13.627031v13.523272h13.41674v13.100728 14.369309h-13.41674v-13.523272h-13.627031v13.523272h-13.5221709z"
        fill="#10306a"
    />
    <path
        d="m.07340955 210.884996h65.91901325v15.214204h-65.91901325z"
        fill="#fff"
    />
    <path
        d="m86.2752529 195.670602h40.9880461v32.541407h-40.9880461z"
        fill="#fff"
    />
    <path
        d="m119.234855 196.939182h15.925004v13.523272h14.498643v27.047494h-30.423647z"
        fill="#df2c39"
    />
    <path
        d="m94.3035066 196.939182h-15.9251947v13.523272h-14.4990238v27.047494h30.4242185z"
        fill="#df2c39"
    />
    <path
        d="m.07340955 159.326216h15.21210925v66.77327h-15.21210925z"
        fill="#fff"
    />
    <path
        d="m.07340955 159.326216h15.21210925v26.624761h-15.21210925z"
        fill="#df2c39"
    />
    <path
        d="m200.787891 159.326216h15.212109v66.77327h-15.212109z"
        fill="#fff"
        transform="matrix(-1 0 0 1 416.78789 0)"
    />
    <path
        d="m200.787891 159.326216h15.212109v26.624761h-15.212109z"
        fill="#df2c39"
        transform="matrix(-1 0 0 1 416.78789 0)"
    />
    <path
        d="m155.996722 118.754498h15.21211v66.77327h-15.21211z"
        fill="#fff"
    />
    <path
        d="m155.996722 118.754498h15.21211v26.624761h-15.21211z"
        fill="#df2c39"
    />
    <path
        d="m44.8646273 118.754498h15.2121093v66.77327h-15.2121093z"
        fill="#fff"
    />
    <g fill="#10306a">
        <path d="m44.8646273 181.724788h15.2121093v15.214204h-15.2121093z" />
        <path d="m60.0762608 166.510394h15.2121092v15.214204h-15.2121092z" />
        <path d="m155.996722 181.724788h15.21211v15.214204h-15.21211z" />
        <path d="m140.785374 166.510394h15.21211v15.214204h-15.21211z" />
    </g>
    <path
        d="m44.8646273 118.754498h15.2121093v26.624761h-15.2121093z"
        fill="#df2c39"
    />
    <g fill="#fff">
        <path d="m60.0762608 181.724788h15.2121092v15.214204h-15.2121092z" />
        <path d="m140.785374 181.724788h15.21211v15.214204h-15.21211z" />
        <path d="m30.4972018 196.939182h47.7490361v13.94629h-47.7490361z" />
        <path d="m135.292123 196.939182h49.016681v13.94629h-49.016681z" />
    </g>
    </g>
</g>
</svg>
